<svg width="52" height="52" viewBox="0 0 52 52" fill="none" xmlns="http://www.w3.org/2000/svg">
<path fill-rule="evenodd" clip-rule="evenodd" d="M26 49C38.7025 49 49 38.7025 49 26C49 13.2975 38.7025 3 26 3C13.2975 3 3 13.2975 3 26C3 38.7025 13.2975 49 26 49ZM26 52C40.3594 52 52 40.3594 52 26C52 11.6406 40.3594 0 26 0C11.6406 0 0 11.6406 0 26C0 40.3594 11.6406 52 26 52Z" fill="#26284E"/>
<path fill-rule="evenodd" clip-rule="evenodd" d="M17.1213 24.5L27.5607 14.0607L25.4393 11.9393L11.3787 26L25.4393 40.0607L27.5607 37.9393L17.1213 27.5H39.5V24.5H17.1213Z" fill="#26284E"/>
</svg>
