<svg width="52" height="52" viewBox="0 0 52 52" fill="none" xmlns="http://www.w3.org/2000/svg">
<path fill-rule="evenodd" clip-rule="evenodd" d="M26 49C38.7025 49 49 38.7025 49 26C49 13.2975 38.7025 3 26 3C13.2975 3 3 13.2975 3 26C3 38.7025 13.2975 49 26 49ZM26 52C40.3594 52 52 40.3594 52 26C52 11.6406 40.3594 0 26 0C11.6406 0 0 11.6406 0 26C0 40.3594 11.6406 52 26 52Z" fill="#26284E"/>
<path fill-rule="evenodd" clip-rule="evenodd" d="M35.8787 24.5L25.4393 14.0607L27.5607 11.9393L41.6213 26L27.5607 40.0607L25.4393 37.9393L35.8787 27.5H13.5V24.5H35.8787Z" fill="#26284E"/>
</svg>
